<svg width="49" height="48" viewBox="0 0 49 48" fill="none" xmlns="http://www.w3.org/2000/svg">
<path d="M42.5 38V34.7081C42.5 33.0725 41.5042 31.6017 39.9856 30.9942L35.9173 29.3669C33.9857 28.5943 31.7844 29.4312 30.854 31.292L30.5 32C30.5 32 25.5 31 21.5 27C17.5 23 16.5 18 16.5 18L17.208 17.646C19.0688 16.7156 19.9057 14.5143 19.1331 12.5827L17.5058 8.51444C16.8983 6.99581 15.4275 6 13.7919 6H10.5C8.29086 6 6.5 7.79086 6.5 10C6.5 27.6731 20.8269 42 38.5 42C40.7091 42 42.5 40.2091 42.5 38Z" fill="white" fill-opacity="0.5" stroke="white" stroke-opacity="0.7" stroke-linejoin="round"/>
</svg>
