<svg width="48" height="48" viewBox="0 0 48 48" fill="none" xmlns="http://www.w3.org/2000/svg">
<path fill-rule="evenodd" clip-rule="evenodd" d="M17.5 13.5C17.5 9.91015 20.4101 7 24 7C27.5899 7 30.5 9.91015 30.5 13.5V16H17.5V13.5ZM14.5 16.1404V13.5C14.5 8.25329 18.7533 4 24 4C29.2467 4 33.5 8.2533 33.5 13.5V16.1404C37.2013 16.8425 40 20.0944 40 24V36C40 40.4183 36.4183 44 32 44H16C11.5817 44 8 40.4183 8 36V24C8 20.0944 10.7987 16.8425 14.5 16.1404ZM24 26.5C24.8284 26.5 25.5 27.1716 25.5 28V32C25.5 32.8284 24.8284 33.5 24 33.5C23.1716 33.5 22.5 32.8284 22.5 32V28C22.5 27.1716 23.1716 26.5 24 26.5Z" fill="white" fill-opacity="0.5"/>
</svg>
